<mxfile host="app.diagrams.net" agent="Mozilla/5.0 (Windows NT 10.0; Win64; x64) AppleWebKit/537.36 (KHTML, like Gecko) Chrome/130.0.0.0 Safari/537.36" version="24.8.4" pages="5">
  <diagram name="Főprogram" id="tnGSm-m996sCxOWpE4W8">
    <mxGraphModel dx="1424" dy="804" grid="1" gridSize="10" guides="1" tooltips="1" connect="1" arrows="1" fold="1" page="1" pageScale="1" pageWidth="1100" pageHeight="850" math="0" shadow="0">
      <root>
        <mxCell id="0" />
        <mxCell id="1" parent="0" />
        <mxCell id="eliIRb35BrtHTwFPxZU--6" style="edgeStyle=orthogonalEdgeStyle;rounded=0;orthogonalLoop=1;jettySize=auto;html=1;entryX=0.5;entryY=0;entryDx=0;entryDy=0;" edge="1" parent="1" source="eliIRb35BrtHTwFPxZU--1" target="eliIRb35BrtHTwFPxZU--3">
          <mxGeometry relative="1" as="geometry" />
        </mxCell>
        <mxCell id="eliIRb35BrtHTwFPxZU--1" value="START" style="ellipse;whiteSpace=wrap;html=1;" vertex="1" parent="1">
          <mxGeometry x="40" y="30" width="120" height="80" as="geometry" />
        </mxCell>
        <mxCell id="eliIRb35BrtHTwFPxZU--2" value="STOP" style="ellipse;whiteSpace=wrap;html=1;" vertex="1" parent="1">
          <mxGeometry x="835" y="1305" width="120" height="80" as="geometry" />
        </mxCell>
        <mxCell id="eliIRb35BrtHTwFPxZU--5" style="edgeStyle=orthogonalEdgeStyle;rounded=0;orthogonalLoop=1;jettySize=auto;html=1;entryX=0.5;entryY=0;entryDx=0;entryDy=0;" edge="1" parent="1" source="eliIRb35BrtHTwFPxZU--3" target="eliIRb35BrtHTwFPxZU--4">
          <mxGeometry relative="1" as="geometry" />
        </mxCell>
        <mxCell id="eliIRb35BrtHTwFPxZU--3" value="KI: üdvözlés" style="shape=parallelogram;perimeter=parallelogramPerimeter;whiteSpace=wrap;html=1;fixedSize=1;" vertex="1" parent="1">
          <mxGeometry x="40" y="190" width="120" height="60" as="geometry" />
        </mxCell>
        <mxCell id="eliIRb35BrtHTwFPxZU--9" style="edgeStyle=orthogonalEdgeStyle;rounded=0;orthogonalLoop=1;jettySize=auto;html=1;entryX=0.5;entryY=0;entryDx=0;entryDy=0;" edge="1" parent="1" source="eliIRb35BrtHTwFPxZU--4" target="eliIRb35BrtHTwFPxZU--7">
          <mxGeometry relative="1" as="geometry" />
        </mxCell>
        <mxCell id="eliIRb35BrtHTwFPxZU--11" value="I" style="edgeLabel;html=1;align=center;verticalAlign=middle;resizable=0;points=[];" vertex="1" connectable="0" parent="eliIRb35BrtHTwFPxZU--9">
          <mxGeometry x="-0.5628" relative="1" as="geometry">
            <mxPoint as="offset" />
          </mxGeometry>
        </mxCell>
        <mxCell id="eliIRb35BrtHTwFPxZU--26" style="edgeStyle=orthogonalEdgeStyle;rounded=0;orthogonalLoop=1;jettySize=auto;html=1;entryX=0.5;entryY=0;entryDx=0;entryDy=0;" edge="1" parent="1" source="eliIRb35BrtHTwFPxZU--4" target="eliIRb35BrtHTwFPxZU--25">
          <mxGeometry relative="1" as="geometry" />
        </mxCell>
        <mxCell id="eliIRb35BrtHTwFPxZU--27" value="H" style="edgeLabel;html=1;align=center;verticalAlign=middle;resizable=0;points=[];" vertex="1" connectable="0" parent="eliIRb35BrtHTwFPxZU--26">
          <mxGeometry x="-0.6308" relative="1" as="geometry">
            <mxPoint as="offset" />
          </mxGeometry>
        </mxCell>
        <mxCell id="eliIRb35BrtHTwFPxZU--4" value="Új felhaszná&lt;div&gt;ló?&lt;/div&gt;" style="rhombus;whiteSpace=wrap;html=1;" vertex="1" parent="1">
          <mxGeometry x="420" y="370" width="190" height="110" as="geometry" />
        </mxCell>
        <mxCell id="eliIRb35BrtHTwFPxZU--39" style="edgeStyle=orthogonalEdgeStyle;rounded=0;orthogonalLoop=1;jettySize=auto;html=1;entryX=0.5;entryY=0;entryDx=0;entryDy=0;" edge="1" parent="1" source="eliIRb35BrtHTwFPxZU--7" target="eliIRb35BrtHTwFPxZU--8">
          <mxGeometry relative="1" as="geometry" />
        </mxCell>
        <mxCell id="eliIRb35BrtHTwFPxZU--7" value="Regisztráció" style="rounded=0;whiteSpace=wrap;html=1;" vertex="1" parent="1">
          <mxGeometry x="180" y="560" width="120" height="60" as="geometry" />
        </mxCell>
        <mxCell id="eliIRb35BrtHTwFPxZU--41" style="edgeStyle=orthogonalEdgeStyle;rounded=0;orthogonalLoop=1;jettySize=auto;html=1;" edge="1" parent="1" source="eliIRb35BrtHTwFPxZU--8">
          <mxGeometry relative="1" as="geometry">
            <mxPoint x="900" y="840" as="targetPoint" />
            <Array as="points">
              <mxPoint x="240" y="840" />
              <mxPoint x="771" y="840" />
            </Array>
          </mxGeometry>
        </mxCell>
        <mxCell id="eliIRb35BrtHTwFPxZU--8" value="Belépés" style="rounded=0;whiteSpace=wrap;html=1;" vertex="1" parent="1">
          <mxGeometry x="180" y="690" width="120" height="60" as="geometry" />
        </mxCell>
        <mxCell id="eliIRb35BrtHTwFPxZU--19" style="edgeStyle=orthogonalEdgeStyle;rounded=0;orthogonalLoop=1;jettySize=auto;html=1;entryX=0.5;entryY=0;entryDx=0;entryDy=0;" edge="1" parent="1" source="eliIRb35BrtHTwFPxZU--16" target="eliIRb35BrtHTwFPxZU--18">
          <mxGeometry relative="1" as="geometry" />
        </mxCell>
        <mxCell id="eliIRb35BrtHTwFPxZU--16" value="Listakezelés" style="rounded=0;whiteSpace=wrap;html=1;" vertex="1" parent="1">
          <mxGeometry x="835" y="910" width="120" height="60" as="geometry" />
        </mxCell>
        <mxCell id="eliIRb35BrtHTwFPxZU--17" value="&lt;font style=&quot;font-size: 16px;&quot;&gt;Főprogram&lt;/font&gt;" style="text;html=1;align=center;verticalAlign=middle;whiteSpace=wrap;rounded=0;" vertex="1" parent="1">
          <mxGeometry x="10" width="60" height="30" as="geometry" />
        </mxCell>
        <mxCell id="eliIRb35BrtHTwFPxZU--45" style="edgeStyle=orthogonalEdgeStyle;rounded=0;orthogonalLoop=1;jettySize=auto;html=1;entryX=0.5;entryY=0;entryDx=0;entryDy=0;" edge="1" parent="1" source="eliIRb35BrtHTwFPxZU--18" target="eliIRb35BrtHTwFPxZU--20">
          <mxGeometry relative="1" as="geometry" />
        </mxCell>
        <mxCell id="eliIRb35BrtHTwFPxZU--18" value="Adatrögzítés" style="rounded=0;whiteSpace=wrap;html=1;" vertex="1" parent="1">
          <mxGeometry x="835" y="1030" width="120" height="60" as="geometry" />
        </mxCell>
        <mxCell id="eliIRb35BrtHTwFPxZU--46" style="edgeStyle=orthogonalEdgeStyle;rounded=0;orthogonalLoop=1;jettySize=auto;html=1;entryX=0.5;entryY=0;entryDx=0;entryDy=0;" edge="1" parent="1" source="eliIRb35BrtHTwFPxZU--20" target="eliIRb35BrtHTwFPxZU--2">
          <mxGeometry relative="1" as="geometry" />
        </mxCell>
        <mxCell id="bgtGDT5cpbmdQVeFY69D-1" value="H" style="edgeLabel;html=1;align=center;verticalAlign=middle;resizable=0;points=[];" vertex="1" connectable="0" parent="eliIRb35BrtHTwFPxZU--46">
          <mxGeometry x="-0.1852" relative="1" as="geometry">
            <mxPoint as="offset" />
          </mxGeometry>
        </mxCell>
        <mxCell id="bgtGDT5cpbmdQVeFY69D-3" style="edgeStyle=orthogonalEdgeStyle;rounded=0;orthogonalLoop=1;jettySize=auto;html=1;endArrow=none;endFill=0;" edge="1" parent="1" source="eliIRb35BrtHTwFPxZU--20">
          <mxGeometry relative="1" as="geometry">
            <mxPoint x="710" y="890" as="targetPoint" />
          </mxGeometry>
        </mxCell>
        <mxCell id="bgtGDT5cpbmdQVeFY69D-5" value="I" style="edgeLabel;html=1;align=center;verticalAlign=middle;resizable=0;points=[];" vertex="1" connectable="0" parent="bgtGDT5cpbmdQVeFY69D-3">
          <mxGeometry x="-0.8398" y="3" relative="1" as="geometry">
            <mxPoint as="offset" />
          </mxGeometry>
        </mxCell>
        <mxCell id="eliIRb35BrtHTwFPxZU--20" value="Új lista?" style="rhombus;whiteSpace=wrap;html=1;" vertex="1" parent="1">
          <mxGeometry x="855" y="1180" width="80" height="80" as="geometry" />
        </mxCell>
        <mxCell id="eliIRb35BrtHTwFPxZU--38" style="edgeStyle=orthogonalEdgeStyle;rounded=0;orthogonalLoop=1;jettySize=auto;html=1;" edge="1" parent="1" source="eliIRb35BrtHTwFPxZU--25">
          <mxGeometry relative="1" as="geometry">
            <mxPoint x="895" y="840" as="targetPoint" />
          </mxGeometry>
        </mxCell>
        <mxCell id="eliIRb35BrtHTwFPxZU--44" value="I" style="edgeLabel;html=1;align=center;verticalAlign=middle;resizable=0;points=[];" vertex="1" connectable="0" parent="eliIRb35BrtHTwFPxZU--38">
          <mxGeometry x="0.074" y="1" relative="1" as="geometry">
            <mxPoint as="offset" />
          </mxGeometry>
        </mxCell>
        <mxCell id="eliIRb35BrtHTwFPxZU--40" style="edgeStyle=orthogonalEdgeStyle;rounded=0;orthogonalLoop=1;jettySize=auto;html=1;entryX=1;entryY=0.5;entryDx=0;entryDy=0;" edge="1" parent="1" source="eliIRb35BrtHTwFPxZU--25" target="eliIRb35BrtHTwFPxZU--8">
          <mxGeometry relative="1" as="geometry" />
        </mxCell>
        <mxCell id="eliIRb35BrtHTwFPxZU--43" value="H" style="edgeLabel;html=1;align=center;verticalAlign=middle;resizable=0;points=[];" vertex="1" connectable="0" parent="eliIRb35BrtHTwFPxZU--40">
          <mxGeometry x="-0.7585" y="-2" relative="1" as="geometry">
            <mxPoint as="offset" />
          </mxGeometry>
        </mxCell>
        <mxCell id="eliIRb35BrtHTwFPxZU--25" value="Nemrég belépett?" style="rhombus;whiteSpace=wrap;html=1;" vertex="1" parent="1">
          <mxGeometry x="830" y="660" width="130" height="120" as="geometry" />
        </mxCell>
        <mxCell id="eliIRb35BrtHTwFPxZU--42" value="" style="endArrow=classic;html=1;rounded=0;entryX=0.512;entryY=0.01;entryDx=0;entryDy=0;entryPerimeter=0;" edge="1" parent="1" target="eliIRb35BrtHTwFPxZU--16">
          <mxGeometry width="50" height="50" relative="1" as="geometry">
            <mxPoint x="895" y="840" as="sourcePoint" />
            <mxPoint x="899.96" y="910" as="targetPoint" />
          </mxGeometry>
        </mxCell>
        <mxCell id="bgtGDT5cpbmdQVeFY69D-4" value="" style="endArrow=classic;html=1;rounded=0;" edge="1" parent="1">
          <mxGeometry width="50" height="50" relative="1" as="geometry">
            <mxPoint x="710" y="890" as="sourcePoint" />
            <mxPoint x="895" y="890" as="targetPoint" />
          </mxGeometry>
        </mxCell>
      </root>
    </mxGraphModel>
  </diagram>
  <diagram id="Kt3D-hANfz-leUERDRaK" name="Regisztráció">
    <mxGraphModel dx="1424" dy="804" grid="1" gridSize="10" guides="1" tooltips="1" connect="1" arrows="1" fold="1" page="1" pageScale="1" pageWidth="850" pageHeight="1100" math="0" shadow="0">
      <root>
        <mxCell id="0" />
        <mxCell id="1" parent="0" />
        <mxCell id="DW3R-afetAsQJMhflJYd-2" style="edgeStyle=orthogonalEdgeStyle;rounded=0;orthogonalLoop=1;jettySize=auto;html=1;entryX=0.5;entryY=0;entryDx=0;entryDy=0;" edge="1" parent="1" source="8kkCf9x5IlJ3f4gc3eoQ-28" target="DW3R-afetAsQJMhflJYd-1">
          <mxGeometry relative="1" as="geometry" />
        </mxCell>
        <mxCell id="8kkCf9x5IlJ3f4gc3eoQ-28" value="START" style="ellipse;whiteSpace=wrap;html=1;" vertex="1" parent="1">
          <mxGeometry x="70" y="40" width="120" height="80" as="geometry" />
        </mxCell>
        <mxCell id="8kkCf9x5IlJ3f4gc3eoQ-29" value="STOP" style="ellipse;whiteSpace=wrap;html=1;" vertex="1" parent="1">
          <mxGeometry x="70" y="1280" width="120" height="80" as="geometry" />
        </mxCell>
        <mxCell id="8kkCf9x5IlJ3f4gc3eoQ-30" value="&lt;font style=&quot;font-size: 16px;&quot;&gt;Regisztráció&lt;/font&gt;" style="text;html=1;align=center;verticalAlign=middle;whiteSpace=wrap;rounded=0;" vertex="1" parent="1">
          <mxGeometry x="20" width="60" height="30" as="geometry" />
        </mxCell>
        <mxCell id="DW3R-afetAsQJMhflJYd-4" style="edgeStyle=orthogonalEdgeStyle;rounded=0;orthogonalLoop=1;jettySize=auto;html=1;entryX=0.5;entryY=0;entryDx=0;entryDy=0;" edge="1" parent="1" source="DW3R-afetAsQJMhflJYd-1" target="DW3R-afetAsQJMhflJYd-3">
          <mxGeometry relative="1" as="geometry" />
        </mxCell>
        <mxCell id="DW3R-afetAsQJMhflJYd-1" value="KI: &quot;Adja meg a felhasználónevét!&quot;" style="shape=parallelogram;perimeter=parallelogramPerimeter;whiteSpace=wrap;html=1;fixedSize=1;" vertex="1" parent="1">
          <mxGeometry x="60" y="200" width="140" height="70" as="geometry" />
        </mxCell>
        <mxCell id="DW3R-afetAsQJMhflJYd-10" style="edgeStyle=orthogonalEdgeStyle;rounded=0;orthogonalLoop=1;jettySize=auto;html=1;entryX=0.5;entryY=0;entryDx=0;entryDy=0;" edge="1" parent="1" source="DW3R-afetAsQJMhflJYd-3" target="DW3R-afetAsQJMhflJYd-9">
          <mxGeometry relative="1" as="geometry" />
        </mxCell>
        <mxCell id="DW3R-afetAsQJMhflJYd-3" value="BE: felhasznalonev" style="shape=parallelogram;perimeter=parallelogramPerimeter;whiteSpace=wrap;html=1;fixedSize=1;" vertex="1" parent="1">
          <mxGeometry x="55" y="320" width="150" height="60" as="geometry" />
        </mxCell>
        <mxCell id="DW3R-afetAsQJMhflJYd-5" style="edgeStyle=orthogonalEdgeStyle;rounded=0;orthogonalLoop=1;jettySize=auto;html=1;entryX=0.5;entryY=0;entryDx=0;entryDy=0;" edge="1" parent="1" source="DW3R-afetAsQJMhflJYd-6" target="DW3R-afetAsQJMhflJYd-7">
          <mxGeometry relative="1" as="geometry" />
        </mxCell>
        <mxCell id="DW3R-afetAsQJMhflJYd-6" value="KI: &quot;Adja meg az email-címét!&quot;" style="shape=parallelogram;perimeter=parallelogramPerimeter;whiteSpace=wrap;html=1;fixedSize=1;" vertex="1" parent="1">
          <mxGeometry x="50" y="590" width="160" height="70" as="geometry" />
        </mxCell>
        <mxCell id="DW3R-afetAsQJMhflJYd-18" style="edgeStyle=orthogonalEdgeStyle;rounded=0;orthogonalLoop=1;jettySize=auto;html=1;entryX=0.5;entryY=0;entryDx=0;entryDy=0;" edge="1" parent="1" source="DW3R-afetAsQJMhflJYd-7" target="DW3R-afetAsQJMhflJYd-17">
          <mxGeometry relative="1" as="geometry" />
        </mxCell>
        <mxCell id="DW3R-afetAsQJMhflJYd-7" value="BE: email" style="shape=parallelogram;perimeter=parallelogramPerimeter;whiteSpace=wrap;html=1;fixedSize=1;" vertex="1" parent="1">
          <mxGeometry x="55" y="730" width="150" height="60" as="geometry" />
        </mxCell>
        <mxCell id="DW3R-afetAsQJMhflJYd-12" style="edgeStyle=orthogonalEdgeStyle;rounded=0;orthogonalLoop=1;jettySize=auto;html=1;endArrow=none;endFill=0;" edge="1" parent="1" source="DW3R-afetAsQJMhflJYd-9">
          <mxGeometry relative="1" as="geometry">
            <mxPoint x="280" y="300" as="targetPoint" />
          </mxGeometry>
        </mxCell>
        <mxCell id="DW3R-afetAsQJMhflJYd-14" value="I" style="edgeLabel;html=1;align=center;verticalAlign=middle;resizable=0;points=[];" vertex="1" connectable="0" parent="DW3R-afetAsQJMhflJYd-12">
          <mxGeometry x="-0.6086" y="-1" relative="1" as="geometry">
            <mxPoint as="offset" />
          </mxGeometry>
        </mxCell>
        <mxCell id="DW3R-afetAsQJMhflJYd-15" style="edgeStyle=orthogonalEdgeStyle;rounded=0;orthogonalLoop=1;jettySize=auto;html=1;entryX=0.5;entryY=0;entryDx=0;entryDy=0;" edge="1" parent="1" source="DW3R-afetAsQJMhflJYd-9" target="DW3R-afetAsQJMhflJYd-6">
          <mxGeometry relative="1" as="geometry" />
        </mxCell>
        <mxCell id="DW3R-afetAsQJMhflJYd-21" value="H" style="edgeLabel;html=1;align=center;verticalAlign=middle;resizable=0;points=[];" vertex="1" connectable="0" parent="DW3R-afetAsQJMhflJYd-15">
          <mxGeometry x="-0.4" y="-1" relative="1" as="geometry">
            <mxPoint as="offset" />
          </mxGeometry>
        </mxCell>
        <mxCell id="DW3R-afetAsQJMhflJYd-9" value="Volt felhasználó?" style="rhombus;whiteSpace=wrap;html=1;" vertex="1" parent="1">
          <mxGeometry x="65" y="420" width="130" height="100" as="geometry" />
        </mxCell>
        <mxCell id="DW3R-afetAsQJMhflJYd-13" value="" style="endArrow=classic;html=1;rounded=0;" edge="1" parent="1">
          <mxGeometry width="50" height="50" relative="1" as="geometry">
            <mxPoint x="280" y="300" as="sourcePoint" />
            <mxPoint x="130" y="300" as="targetPoint" />
          </mxGeometry>
        </mxCell>
        <mxCell id="DW3R-afetAsQJMhflJYd-19" style="edgeStyle=orthogonalEdgeStyle;rounded=0;orthogonalLoop=1;jettySize=auto;html=1;endArrow=none;endFill=0;" edge="1" parent="1" source="DW3R-afetAsQJMhflJYd-17">
          <mxGeometry relative="1" as="geometry">
            <mxPoint x="280" y="700" as="targetPoint" />
          </mxGeometry>
        </mxCell>
        <mxCell id="DW3R-afetAsQJMhflJYd-22" value="I" style="edgeLabel;html=1;align=center;verticalAlign=middle;resizable=0;points=[];" vertex="1" connectable="0" parent="DW3R-afetAsQJMhflJYd-19">
          <mxGeometry x="-0.6848" y="-1" relative="1" as="geometry">
            <mxPoint as="offset" />
          </mxGeometry>
        </mxCell>
        <mxCell id="DW3R-afetAsQJMhflJYd-25" style="edgeStyle=orthogonalEdgeStyle;rounded=0;orthogonalLoop=1;jettySize=auto;html=1;entryX=0.5;entryY=0;entryDx=0;entryDy=0;" edge="1" parent="1" source="DW3R-afetAsQJMhflJYd-17" target="DW3R-afetAsQJMhflJYd-23">
          <mxGeometry relative="1" as="geometry" />
        </mxCell>
        <mxCell id="DW3R-afetAsQJMhflJYd-27" value="H" style="edgeLabel;html=1;align=center;verticalAlign=middle;resizable=0;points=[];" vertex="1" connectable="0" parent="DW3R-afetAsQJMhflJYd-25">
          <mxGeometry x="-0.16" y="1" relative="1" as="geometry">
            <mxPoint as="offset" />
          </mxGeometry>
        </mxCell>
        <mxCell id="DW3R-afetAsQJMhflJYd-17" value="Volt e-mail cím?" style="rhombus;whiteSpace=wrap;html=1;" vertex="1" parent="1">
          <mxGeometry x="65" y="850" width="130" height="100" as="geometry" />
        </mxCell>
        <mxCell id="DW3R-afetAsQJMhflJYd-20" value="" style="endArrow=classic;html=1;rounded=0;" edge="1" parent="1">
          <mxGeometry width="50" height="50" relative="1" as="geometry">
            <mxPoint x="280" y="700" as="sourcePoint" />
            <mxPoint x="130" y="700" as="targetPoint" />
          </mxGeometry>
        </mxCell>
        <mxCell id="DW3R-afetAsQJMhflJYd-26" style="edgeStyle=orthogonalEdgeStyle;rounded=0;orthogonalLoop=1;jettySize=auto;html=1;entryX=0.5;entryY=0;entryDx=0;entryDy=0;" edge="1" parent="1" source="DW3R-afetAsQJMhflJYd-23" target="DW3R-afetAsQJMhflJYd-24">
          <mxGeometry relative="1" as="geometry" />
        </mxCell>
        <mxCell id="DW3R-afetAsQJMhflJYd-23" value="KI: &quot;Adjon meg egy jelszót!&quot;" style="shape=parallelogram;perimeter=parallelogramPerimeter;whiteSpace=wrap;html=1;fixedSize=1;" vertex="1" parent="1">
          <mxGeometry x="40" y="1000" width="180" height="70" as="geometry" />
        </mxCell>
        <mxCell id="DW3R-afetAsQJMhflJYd-28" style="edgeStyle=orthogonalEdgeStyle;rounded=0;orthogonalLoop=1;jettySize=auto;html=1;entryX=0.5;entryY=0;entryDx=0;entryDy=0;" edge="1" parent="1" source="DW3R-afetAsQJMhflJYd-24" target="8kkCf9x5IlJ3f4gc3eoQ-29">
          <mxGeometry relative="1" as="geometry" />
        </mxCell>
        <mxCell id="DW3R-afetAsQJMhflJYd-24" value="BE: jelszo" style="shape=parallelogram;perimeter=parallelogramPerimeter;whiteSpace=wrap;html=1;fixedSize=1;" vertex="1" parent="1">
          <mxGeometry x="55" y="1140" width="150" height="60" as="geometry" />
        </mxCell>
      </root>
    </mxGraphModel>
  </diagram>
  <diagram id="IL-L0KQzMiO4hKfhvKAT" name="Belépés">
    <mxGraphModel dx="1675" dy="946" grid="1" gridSize="10" guides="1" tooltips="1" connect="1" arrows="1" fold="1" page="1" pageScale="1" pageWidth="850" pageHeight="1100" math="0" shadow="0">
      <root>
        <mxCell id="0" />
        <mxCell id="1" parent="0" />
        <mxCell id="yHxr87gfsWvkoZdM-7hX-5" style="edgeStyle=orthogonalEdgeStyle;rounded=0;orthogonalLoop=1;jettySize=auto;html=1;entryX=0.5;entryY=0;entryDx=0;entryDy=0;" edge="1" parent="1" source="5ARE8LPv0HIUe0C1nW4R-1" target="LMI0bxkGpARFNAVUoUFi-1">
          <mxGeometry relative="1" as="geometry" />
        </mxCell>
        <mxCell id="5ARE8LPv0HIUe0C1nW4R-1" value="START" style="ellipse;whiteSpace=wrap;html=1;" vertex="1" parent="1">
          <mxGeometry x="57.5" y="50" width="120" height="80" as="geometry" />
        </mxCell>
        <mxCell id="5ARE8LPv0HIUe0C1nW4R-2" value="STOP" style="ellipse;whiteSpace=wrap;html=1;" vertex="1" parent="1">
          <mxGeometry x="540" y="730" width="120" height="80" as="geometry" />
        </mxCell>
        <mxCell id="5ARE8LPv0HIUe0C1nW4R-3" value="&lt;font style=&quot;font-size: 16px;&quot;&gt;Belépés&lt;/font&gt;" style="text;html=1;align=center;verticalAlign=middle;whiteSpace=wrap;rounded=0;" vertex="1" parent="1">
          <mxGeometry width="60" height="30" as="geometry" />
        </mxCell>
        <mxCell id="yHxr87gfsWvkoZdM-7hX-4" style="edgeStyle=orthogonalEdgeStyle;rounded=0;orthogonalLoop=1;jettySize=auto;html=1;entryX=0.5;entryY=0;entryDx=0;entryDy=0;" edge="1" parent="1" source="LMI0bxkGpARFNAVUoUFi-1" target="yHxr87gfsWvkoZdM-7hX-1">
          <mxGeometry relative="1" as="geometry" />
        </mxCell>
        <mxCell id="yHxr87gfsWvkoZdM-7hX-6" value="I" style="edgeLabel;html=1;align=center;verticalAlign=middle;resizable=0;points=[];" vertex="1" connectable="0" parent="yHxr87gfsWvkoZdM-7hX-4">
          <mxGeometry x="-0.2" relative="1" as="geometry">
            <mxPoint as="offset" />
          </mxGeometry>
        </mxCell>
        <mxCell id="yHxr87gfsWvkoZdM-7hX-12" style="edgeStyle=orthogonalEdgeStyle;rounded=0;orthogonalLoop=1;jettySize=auto;html=1;" edge="1" parent="1" source="LMI0bxkGpARFNAVUoUFi-1" target="yHxr87gfsWvkoZdM-7hX-11">
          <mxGeometry relative="1" as="geometry" />
        </mxCell>
        <mxCell id="yHxr87gfsWvkoZdM-7hX-14" value="H" style="edgeLabel;html=1;align=center;verticalAlign=middle;resizable=0;points=[];" vertex="1" connectable="0" parent="yHxr87gfsWvkoZdM-7hX-12">
          <mxGeometry x="-0.7255" y="-2" relative="1" as="geometry">
            <mxPoint as="offset" />
          </mxGeometry>
        </mxCell>
        <mxCell id="LMI0bxkGpARFNAVUoUFi-1" value="Eltelt 1 óra az utolsó belépés óta?" style="rhombus;whiteSpace=wrap;html=1;" vertex="1" parent="1">
          <mxGeometry x="50" y="180" width="135" height="130" as="geometry" />
        </mxCell>
        <mxCell id="yHxr87gfsWvkoZdM-7hX-18" style="edgeStyle=orthogonalEdgeStyle;rounded=0;orthogonalLoop=1;jettySize=auto;html=1;entryX=0.5;entryY=0;entryDx=0;entryDy=0;" edge="1" parent="1" source="yHxr87gfsWvkoZdM-7hX-1" target="yHxr87gfsWvkoZdM-7hX-15">
          <mxGeometry relative="1" as="geometry" />
        </mxCell>
        <mxCell id="yHxr87gfsWvkoZdM-7hX-1" value="KI: &quot;Lejárt a munkamenet, jelentkezzen be újra!&quot;" style="shape=parallelogram;perimeter=parallelogramPerimeter;whiteSpace=wrap;html=1;fixedSize=1;" vertex="1" parent="1">
          <mxGeometry x="32.5" y="390" width="170" height="110" as="geometry" />
        </mxCell>
        <mxCell id="yHxr87gfsWvkoZdM-7hX-8" style="edgeStyle=orthogonalEdgeStyle;rounded=0;orthogonalLoop=1;jettySize=auto;html=1;endArrow=none;endFill=0;" edge="1" parent="1" source="yHxr87gfsWvkoZdM-7hX-2">
          <mxGeometry relative="1" as="geometry">
            <mxPoint x="20" y="150" as="targetPoint" />
          </mxGeometry>
        </mxCell>
        <mxCell id="yHxr87gfsWvkoZdM-7hX-2" value="Új token generálás" style="rounded=0;whiteSpace=wrap;html=1;" vertex="1" parent="1">
          <mxGeometry x="57.5" y="900" width="120" height="60" as="geometry" />
        </mxCell>
        <mxCell id="yHxr87gfsWvkoZdM-7hX-9" value="" style="endArrow=classic;html=1;rounded=0;" edge="1" parent="1">
          <mxGeometry width="50" height="50" relative="1" as="geometry">
            <mxPoint x="20" y="150" as="sourcePoint" />
            <mxPoint x="120" y="150" as="targetPoint" />
          </mxGeometry>
        </mxCell>
        <mxCell id="yHxr87gfsWvkoZdM-7hX-13" style="edgeStyle=orthogonalEdgeStyle;rounded=0;orthogonalLoop=1;jettySize=auto;html=1;entryX=0.5;entryY=0;entryDx=0;entryDy=0;" edge="1" parent="1" source="yHxr87gfsWvkoZdM-7hX-11" target="5ARE8LPv0HIUe0C1nW4R-2">
          <mxGeometry relative="1" as="geometry" />
        </mxCell>
        <mxCell id="yHxr87gfsWvkoZdM-7hX-11" value="KI: &quot;Sikeres bejelentkezés!&quot;" style="shape=parallelogram;perimeter=parallelogramPerimeter;whiteSpace=wrap;html=1;fixedSize=1;" vertex="1" parent="1">
          <mxGeometry x="540" y="570" width="120" height="60" as="geometry" />
        </mxCell>
        <mxCell id="yHxr87gfsWvkoZdM-7hX-15" value="BE: email + jelszo" style="shape=parallelogram;perimeter=parallelogramPerimeter;whiteSpace=wrap;html=1;fixedSize=1;" vertex="1" parent="1">
          <mxGeometry x="57.5" y="570" width="120" height="60" as="geometry" />
        </mxCell>
        <mxCell id="yHxr87gfsWvkoZdM-7hX-24" style="edgeStyle=orthogonalEdgeStyle;rounded=0;orthogonalLoop=1;jettySize=auto;html=1;" edge="1" parent="1" source="yHxr87gfsWvkoZdM-7hX-23">
          <mxGeometry relative="1" as="geometry">
            <mxPoint x="117.5" y="900" as="targetPoint" />
          </mxGeometry>
        </mxCell>
        <mxCell id="yHxr87gfsWvkoZdM-7hX-31" value="I" style="edgeLabel;html=1;align=center;verticalAlign=middle;resizable=0;points=[];" vertex="1" connectable="0" parent="yHxr87gfsWvkoZdM-7hX-24">
          <mxGeometry x="-0.2036" y="1" relative="1" as="geometry">
            <mxPoint as="offset" />
          </mxGeometry>
        </mxCell>
        <mxCell id="yHxr87gfsWvkoZdM-7hX-26" style="edgeStyle=orthogonalEdgeStyle;rounded=0;orthogonalLoop=1;jettySize=auto;html=1;" edge="1" parent="1" source="yHxr87gfsWvkoZdM-7hX-23" target="yHxr87gfsWvkoZdM-7hX-25">
          <mxGeometry relative="1" as="geometry" />
        </mxCell>
        <mxCell id="yHxr87gfsWvkoZdM-7hX-32" value="H" style="edgeLabel;html=1;align=center;verticalAlign=middle;resizable=0;points=[];" vertex="1" connectable="0" parent="yHxr87gfsWvkoZdM-7hX-26">
          <mxGeometry x="-0.0759" y="-2" relative="1" as="geometry">
            <mxPoint x="1" as="offset" />
          </mxGeometry>
        </mxCell>
        <mxCell id="yHxr87gfsWvkoZdM-7hX-23" value="Helyes adatok?" style="rhombus;whiteSpace=wrap;html=1;" vertex="1" parent="1">
          <mxGeometry x="77.5" y="710" width="80" height="80" as="geometry" />
        </mxCell>
        <mxCell id="yHxr87gfsWvkoZdM-7hX-25" value="KI: &quot;Hibás adatok!&quot;" style="shape=parallelogram;perimeter=parallelogramPerimeter;whiteSpace=wrap;html=1;fixedSize=1;" vertex="1" parent="1">
          <mxGeometry x="220" y="720" width="120" height="60" as="geometry" />
        </mxCell>
        <mxCell id="yHxr87gfsWvkoZdM-7hX-29" value="" style="endArrow=none;html=1;rounded=0;exitX=0.5;exitY=0;exitDx=0;exitDy=0;" edge="1" parent="1" source="yHxr87gfsWvkoZdM-7hX-25">
          <mxGeometry width="50" height="50" relative="1" as="geometry">
            <mxPoint x="180" y="690" as="sourcePoint" />
            <mxPoint x="280" y="530" as="targetPoint" />
          </mxGeometry>
        </mxCell>
        <mxCell id="yHxr87gfsWvkoZdM-7hX-30" value="" style="endArrow=classic;html=1;rounded=0;" edge="1" parent="1">
          <mxGeometry width="50" height="50" relative="1" as="geometry">
            <mxPoint x="280" y="530" as="sourcePoint" />
            <mxPoint x="120" y="530" as="targetPoint" />
          </mxGeometry>
        </mxCell>
        <mxCell id="yHxr87gfsWvkoZdM-7hX-33" style="edgeStyle=orthogonalEdgeStyle;rounded=0;orthogonalLoop=1;jettySize=auto;html=1;entryX=0.508;entryY=0.039;entryDx=0;entryDy=0;entryPerimeter=0;" edge="1" parent="1" source="yHxr87gfsWvkoZdM-7hX-15" target="yHxr87gfsWvkoZdM-7hX-23">
          <mxGeometry relative="1" as="geometry" />
        </mxCell>
      </root>
    </mxGraphModel>
  </diagram>
  <diagram id="B4ThWcg7-wwZpsnUeOWK" name="Listakezelés">
    <mxGraphModel dx="1424" dy="804" grid="1" gridSize="10" guides="1" tooltips="1" connect="1" arrows="1" fold="1" page="1" pageScale="1" pageWidth="850" pageHeight="1100" math="0" shadow="0">
      <root>
        <mxCell id="0" />
        <mxCell id="1" parent="0" />
        <mxCell id="TDxHErqlgbBZtYlwiEiw-1" value="&lt;font style=&quot;font-size: 16px;&quot;&gt;Listakezelés&lt;/font&gt;" style="text;html=1;align=center;verticalAlign=middle;whiteSpace=wrap;rounded=0;" vertex="1" parent="1">
          <mxGeometry width="90" height="30" as="geometry" />
        </mxCell>
        <mxCell id="TDxHErqlgbBZtYlwiEiw-2" value="START" style="ellipse;whiteSpace=wrap;html=1;" vertex="1" parent="1">
          <mxGeometry x="30" y="40" width="120" height="80" as="geometry" />
        </mxCell>
        <mxCell id="TDxHErqlgbBZtYlwiEiw-3" value="STOP" style="ellipse;whiteSpace=wrap;html=1;" vertex="1" parent="1">
          <mxGeometry x="30" y="350" width="120" height="80" as="geometry" />
        </mxCell>
      </root>
    </mxGraphModel>
  </diagram>
  <diagram id="1nPV9NzStM8Vhf1v2azk" name="Adatrögzítés">
    <mxGraphModel dx="1424" dy="804" grid="1" gridSize="10" guides="1" tooltips="1" connect="1" arrows="1" fold="1" page="1" pageScale="1" pageWidth="850" pageHeight="1100" math="0" shadow="0">
      <root>
        <mxCell id="0" />
        <mxCell id="1" parent="0" />
        <mxCell id="5B0Ju5LV36Q_AsO1NJx--1" value="&lt;font style=&quot;font-size: 16px;&quot;&gt;Adatrögzítés&lt;/font&gt;" style="text;html=1;align=center;verticalAlign=middle;whiteSpace=wrap;rounded=0;" vertex="1" parent="1">
          <mxGeometry width="90" height="30" as="geometry" />
        </mxCell>
        <mxCell id="5B0Ju5LV36Q_AsO1NJx--2" value="START" style="ellipse;whiteSpace=wrap;html=1;" vertex="1" parent="1">
          <mxGeometry x="20" y="50" width="120" height="80" as="geometry" />
        </mxCell>
        <mxCell id="5B0Ju5LV36Q_AsO1NJx--3" value="STOP" style="ellipse;whiteSpace=wrap;html=1;" vertex="1" parent="1">
          <mxGeometry x="20" y="330" width="120" height="80" as="geometry" />
        </mxCell>
      </root>
    </mxGraphModel>
  </diagram>
</mxfile>
